<?xml version="1.0" encoding="UTF-8" standalone="no"?>
<!DOCTYPE svg PUBLIC "-//W3C//DTD SVG 1.1//EN"
 "http://www.w3.org/Graphics/SVG/1.1/DTD/svg11.dtd">
<!-- Generated by graphviz version 2.47.0 (20210316.0004)
 -->
<!-- Title: dependencies Pages: 1 -->
<svg width="504pt" height="287pt"
 viewBox="0.00 0.00 504.00 287.00" xmlns="http://www.w3.org/2000/svg" xmlns:xlink="http://www.w3.org/1999/xlink">
<g id="graph0" class="graph" transform="scale(1 1) rotate(0) translate(4 283)">
<title>dependencies</title>
<polygon fill="white" stroke="transparent" points="-4,4 -4,-283 500,-283 500,4 -4,4"/>
<text text-anchor="start" x="227.01" y="-42.4" font-family="Times-12" font-weight="bold" font-size="14.00">Legend</text>
<polygon fill="#ffffb3" stroke="transparent" points="14,-10 14,-30 34,-30 34,-10 14,-10"/>
<text text-anchor="start" x="37.63" y="-15.4" font-family="Times-12" font-size="14.00"> &#160;Declarations</text>
<polygon fill="#8dd3c7" stroke="transparent" points="127,-10 127,-30 147,-30 147,-10 127,-10"/>
<text text-anchor="start" x="150.73" y="-15.4" font-family="Times-12" font-size="14.00"> &#160;Module</text>
<polygon fill="#80b1d3" stroke="transparent" points="213,-10 213,-30 233,-30 233,-10 213,-10"/>
<text text-anchor="start" x="236.78" y="-15.4" font-family="Times-12" font-size="14.00"> &#160;Bootstrap</text>
<polygon fill="#fdb462" stroke="transparent" points="310,-10 310,-30 330,-30 330,-10 310,-10"/>
<text text-anchor="start" x="333.67" y="-15.4" font-family="Times-12" font-size="14.00"> &#160;Providers</text>
<polygon fill="#fb8072" stroke="transparent" points="406,-10 406,-30 426,-30 426,-10 406,-10"/>
<text text-anchor="start" x="429.73" y="-15.4" font-family="Times-12" font-size="14.00"> &#160;Exports</text>
<g id="clust1" class="cluster">
<title>cluster_AppModule</title>
<polygon fill="none" stroke="black" stroke-dasharray="1,5" points="110,-146 110,-271 370,-271 370,-146 110,-146"/>
</g>
<g id="clust3" class="cluster">
<title>cluster_AppModule_imports</title>
<polygon fill="none" stroke="black" points="256,-154 256,-206 362,-206 362,-154 256,-154"/>
</g>
<g id="clust6" class="cluster">
<title>cluster_AppModule_providers</title>
<polygon fill="none" stroke="black" points="118,-154 118,-206 248,-206 248,-154 118,-154"/>
</g>
<g id="clust7" class="cluster">
<title>cluster_OcppModule</title>
<polygon fill="none" stroke="black" stroke-dasharray="1,5" points="232,-70 232,-138 386,-138 386,-70 232,-70"/>
</g>
<g id="clust12" class="cluster">
<title>cluster_OcppModule_providers</title>
<polygon fill="none" stroke="black" points="240,-78 240,-130 378,-130 378,-78 240,-78"/>
</g>
<!-- OcppModule -->
<g id="node1" class="node">
<title>OcppModule</title>
<polygon fill="#8dd3c7" stroke="black" points="353.87,-198 350.87,-202 329.87,-202 326.87,-198 264.13,-198 264.13,-162 353.87,-162 353.87,-198"/>
<text text-anchor="middle" x="309" y="-175.8" font-family="Times,serif" font-size="14.00">OcppModule</text>
</g>
<!-- AppModule -->
<g id="node2" class="node">
<title>AppModule</title>
<polygon fill="#8dd3c7" stroke="black" points="287.66,-263 284.66,-267 263.66,-267 260.66,-263 204.34,-263 204.34,-227 287.66,-227 287.66,-263"/>
<text text-anchor="middle" x="246" y="-240.8" font-family="Times,serif" font-size="14.00">AppModule</text>
</g>
<!-- OcppModule&#45;&gt;AppModule -->
<g id="edge1" class="edge">
<title>OcppModule&#45;&gt;AppModule</title>
<path fill="none" stroke="black" d="M275.95,-198.11C275.95,-198.11 275.95,-216.99 275.95,-216.99"/>
<polygon fill="black" stroke="black" points="272.45,-216.99 275.95,-226.99 279.45,-216.99 272.45,-216.99"/>
</g>
<!-- AppService -->
<g id="node3" class="node">
<title>AppService</title>
<ellipse fill="#fdb462" stroke="black" cx="183" cy="-180" rx="56.74" ry="18"/>
<text text-anchor="middle" x="183" y="-175.8" font-family="Times,serif" font-size="14.00">AppService</text>
</g>
<!-- AppService&#45;&gt;AppModule -->
<g id="edge2" class="edge">
<title>AppService&#45;&gt;AppModule</title>
<path fill="none" stroke="black" d="M221.9,-193.15C221.9,-193.15 221.9,-216.69 221.9,-216.69"/>
<polygon fill="black" stroke="black" points="218.4,-216.69 221.9,-226.69 225.4,-216.69 218.4,-216.69"/>
</g>
<!-- OcppService -->
<g id="node4" class="node">
<title>OcppService</title>
<ellipse fill="#fdb462" stroke="black" cx="309" cy="-104" rx="60.81" ry="18"/>
<text text-anchor="middle" x="309" y="-99.8" font-family="Times,serif" font-size="14.00">OcppService</text>
</g>
<!-- OcppService&#45;&gt;OcppModule -->
<g id="edge3" class="edge">
<title>OcppService&#45;&gt;OcppModule</title>
<path fill="none" stroke="black" d="M309,-122.01C309,-122.01 309,-151.85 309,-151.85"/>
<polygon fill="black" stroke="black" points="305.5,-151.85 309,-161.85 312.5,-151.85 305.5,-151.85"/>
</g>
</g>
</svg>
